HIERARCHY
ROOT Hips
{
	OFFSET 0.000000 0.000000 0.000000
	CHANNELS 6 Xposition Yposition Zposition Zrotation Yrotation Xrotation 
	JOINT LHipJoint
	{
		OFFSET 0.000000 0.000000 0.000000
		CHANNELS 3 Zrotation Yrotation Xrotation
		JOINT LeftUpLeg
		{
			OFFSET 1.363060 -1.794630 0.839290
			CHANNELS 3 Zrotation Yrotation Xrotation
			JOINT LeftLeg
			{
				OFFSET 2.448110 -6.726130 0.000000
				CHANNELS 3 Zrotation Yrotation Xrotation
				JOINT LeftFoot
				{
					OFFSET 2.562200 -7.039590 0.000000
					CHANNELS 3 Zrotation Yrotation Xrotation
					JOINT LeftToeBase
					{
						OFFSET 0.157640 -0.433110 2.322550
						CHANNELS 3 Zrotation Yrotation Xrotation
						End Site
						{
							OFFSET 0.000000 0.000000 0.000000
						}
					}
				}
			}
		}
	}
	JOINT RHipJoint
	{
		OFFSET 0.000000 0.000000 0.000000
		CHANNELS 3 Zrotation Yrotation Xrotation
		JOINT RightUpLeg
		{
			OFFSET -1.305520 -1.794630 0.839290
			CHANNELS 3 Zrotation Yrotation Xrotation
			JOINT RightLeg
			{
				OFFSET -2.542530 -6.985550 0.000000
				CHANNELS 3 Zrotation Yrotation Xrotation
				JOINT RightFoot
				{
					OFFSET -2.568260 -7.056230 0.000000
					CHANNELS 3 Zrotation Yrotation Xrotation
					JOINT RightToeBase
					{
						OFFSET -0.164730 -0.452590 2.363150
						CHANNELS 3 Zrotation Yrotation Xrotation
						End Site
						{
							OFFSET 0.000000 0.000000 0.000000
						}
					}
				}
			}
		}
	}
	JOINT LowerBack
	{
		OFFSET 0.000000 0.000000 0.000000
		CHANNELS 3 Zrotation Yrotation Xrotation
		JOINT Spine
		{
			OFFSET 0.028270 2.035590 -0.193380
			CHANNELS 3 Zrotation Yrotation Xrotation
			JOINT Spine1
			{
				OFFSET 0.056720 2.048850 -0.042750
				CHANNELS 3 Zrotation Yrotation Xrotation
				JOINT Neck
				{
					OFFSET 0.000000 0.000000 0.000000
					CHANNELS 3 Zrotation Yrotation Xrotation
					JOINT Neck1
					{
						OFFSET -0.054170 1.746240 0.172020
						CHANNELS 3 Zrotation Yrotation Xrotation
						JOINT Head
						{
							OFFSET 0.104070 1.761360 -0.123970
							CHANNELS 3 Zrotation Yrotation Xrotation
							End Site
							{
								OFFSET 0.000000 0.000000 0.000000
							}
						}
					}
				}
				JOINT LeftShoulder
				{
					OFFSET 0.000000 0.000000 0.000000
					CHANNELS 3 Zrotation Yrotation Xrotation
					JOINT LeftArm
					{
						OFFSET 3.362410 1.200890 -0.311210
						CHANNELS 3 Zrotation Yrotation Xrotation
						JOINT LeftForeArm
						{
							OFFSET 4.983000 -0.000000 -0.000000
							CHANNELS 3 Zrotation Yrotation Xrotation
							JOINT LeftHand
							{
								OFFSET 3.483560 -0.000000 -0.000000
								CHANNELS 3 Zrotation Yrotation Xrotation
								JOINT LeftFingerBase
								{
									OFFSET 0.000000 0.000000 0.000000
									CHANNELS 3 Zrotation Yrotation Xrotation
									JOINT LeftHandIndex1
									{
										OFFSET 0.715260 -0.000000 -0.000000
										CHANNELS 3 Zrotation Yrotation Xrotation
										End Site
										{
											OFFSET 0.000000 0.000000 0.000000
										}
									}
								}
								JOINT LThumb
								{
									OFFSET 0.000000 0.000000 0.000000
									CHANNELS 3 Zrotation Yrotation Xrotation
									End Site
									{
										OFFSET 0.000000 0.000000 0.000000
									}
								}
							}
						}
					}
				}
				JOINT RightShoulder
				{
					OFFSET 0.000000 0.000000 0.000000
					CHANNELS 3 Zrotation Yrotation Xrotation
					JOINT RightArm
					{
						OFFSET -3.136600 1.374050 -0.404650
						CHANNELS 3 Zrotation Yrotation Xrotation
						JOINT RightForeArm
						{
							OFFSET -5.241900 -0.000000 -0.000000
							CHANNELS 3 Zrotation Yrotation Xrotation
							JOINT RightHand
							{
								OFFSET -3.444170 -0.000000 -0.000000
								CHANNELS 3 Zrotation Yrotation Xrotation
								JOINT RightFingerBase
								{
									OFFSET 0.000000 0.000000 0.000000
									CHANNELS 3 Zrotation Yrotation Xrotation
									JOINT RightHandIndex1
									{
										OFFSET -0.622530 -0.000000 -0.000000
										CHANNELS 3 Zrotation Yrotation Xrotation
										End Site
										{
											OFFSET 0.000000 0.000000 0.000000
										}
									}
								}
								JOINT RThumb
								{
									OFFSET 0.000000 0.000000 0.000000
									CHANNELS 3 Zrotation Yrotation Xrotation
									End Site
									{
										OFFSET 0.000000 0.000000 0.000000
									}
								}
							}
						}
					}
				}
			}
		}
	}
}
MOTION
Frames: 12
Frame Time: 0.016667
0.022165 17.861985 0.022165 -0.202337 -13.415809 2.971620 -3.253677 21.926636 5.446783 -18.437486 -3.505823 -13.333464 -7.340983 -6.422779 -23.250374 1.952746 15.414541 33.135504 0.000000 0.000000 0.000000 1.247754 -37.138990 -5.187423 49.497170 22.447540 -7.319720 -25.305471 8.745558 43.365416 -2.844301 15.834520 -20.073425 0.000000 0.000000 0.000000 0.737564 4.495789 5.199038 -1.609141 3.638494 17.533222 0.034741 4.093091 -14.739813 5.006029 -0.795440 -7.981111 -0.970534 -0.110968 0.080660 0.000000 0.000000 0.000000 -1.752755 14.255329 9.452123 -69.465114 -5.767382 9.585700 10.066176 -89.912254 0.450272 3.317592 -9.766359 0.224297 3.320384 -9.765670 0.000000 0.000000 0.000000 0.000000 0.000000 0.000000 0.000000 -2.230838 -11.411871 7.032399 64.360957 3.658165 21.754519 13.616770 80.144415 0.371250 -1.270184 11.714199 0.183118 -1.292542 11.715801 0.000000 0.000000 0.000000 0.000000 0.000000 0.000000 0.000000 
0.030065 17.891224 0.179346 -0.081854 -13.439174 3.016870 -2.919189 21.963182 5.284706 -19.011767 -3.450110 -12.924236 -7.179943 -6.107285 -22.171937 1.645140 14.487276 31.073485 0.000000 0.000000 0.000000 0.962228 -36.900319 -4.823903 48.756975 22.619644 -7.684386 -24.686623 8.345466 43.978852 -2.814758 15.835764 -20.762368 0.000000 0.000000 0.000000 0.843005 4.398345 4.914223 -2.001631 3.573807 17.819762 0.102801 3.975885 -14.245007 5.235466 -0.808413 -8.368165 -1.002978 -0.107138 -0.121097 0.000000 0.000000 0.000000 -1.207952 14.128251 9.183675 -69.530452 -6.247847 9.319944 10.047678 -89.958272 0.416682 3.569131 -10.002981 0.207123 3.577667 -10.000090 0.000000 0.000000 0.000000 0.000000 0.000000 0.000000 0.000000 -2.976281 -11.079486 7.228655 65.341954 4.239389 20.937419 15.422029 78.348218 0.390350 -1.066331 12.151979 0.192552 -1.088442 12.154309 0.000000 0.000000 0.000000 0.000000 0.000000 0.000000 0.000000 
0.040214 17.922282 0.335936 0.030163 -13.451599 3.073993 -2.625076 21.986422 5.107297 -19.535438 -3.402498 -12.562406 -7.030585 -5.762240 -21.033074 1.372772 13.577551 29.040615 0.000000 0.000000 0.000000 0.700671 -36.624165 -4.449379 47.969131 22.793957 -8.090613 -24.060442 7.933707 44.552321 -2.777651 15.823804 -21.390822 0.000000 0.000000 0.000000 0.957928 4.289268 4.633810 -2.381666 3.501085 18.055051 0.146840 3.851448 -13.726068 5.455122 -0.830507 -8.725762 -1.057957 -0.108685 -0.218862 0.000000 0.000000 0.000000 -0.658116 14.005278 8.919434 -69.566052 -6.720070 9.043844 10.031271 -89.998213 0.381526 3.826949 -10.237913 0.189134 3.841591 -10.232644 0.000000 0.000000 0.000000 0.000000 0.000000 0.000000 0.000000 -3.740397 -10.747442 7.414879 66.341526 4.849588 20.014979 17.261738 76.423884 0.409335 -0.854592 12.582090 0.201951 -0.876088 12.585152 0.000000 0.000000 0.000000 0.000000 0.000000 0.000000 0.000000 
0.051496 17.953947 0.490455 0.045829 -13.133254 2.934662 -1.979607 22.138836 4.891689 -20.224810 -3.481202 -12.181828 -7.097655 -5.245216 -19.111553 1.076069 12.357816 26.572992 0.000000 0.000000 0.000000 -0.038608 -36.269911 -4.404328 47.311504 22.026146 -7.767468 -22.976137 7.147122 44.384475 -2.720812 15.871674 -22.411468 0.000000 0.000000 0.000000 1.110032 4.131398 4.626001 -2.460137 3.357000 18.291868 -0.020307 3.694550 -13.555086 5.571024 -0.827651 -8.920399 -1.012084 -0.105073 -0.200705 0.000000 0.000000 0.000000 -0.514845 13.975869 8.787321 -69.534209 -6.879650 8.974070 -169.883089 -89.980216 -179.622948 3.868587 -10.250441 0.186856 3.883901 -10.244862 0.000000 0.000000 0.000000 0.000000 0.000000 0.000000 0.000000 -4.208611 -10.712535 7.555173 67.024647 5.179122 19.289642 18.687453 74.818494 0.419309 -0.680542 12.821721 0.206937 -0.701008 12.825305 0.000000 0.000000 0.000000 0.000000 0.000000 0.000000 0.000000 
0.064409 17.986570 0.643607 0.043298 -12.766989 2.798648 -1.387548 22.270135 4.662735 -20.840076 -3.584716 -11.863723 -7.146241 -4.691192 -17.106816 0.819083 11.171802 24.182329 0.000000 0.000000 0.000000 -0.757220 -35.835526 -4.359501 46.594141 21.231218 -7.455562 -21.834485 6.321394 44.142049 -2.649917 15.890925 -23.390938 0.000000 0.000000 0.000000 1.280400 3.954487 4.618908 -2.525659 3.195804 18.528299 -0.195859 3.523789 -13.389774 5.684662 -0.824232 -9.112705 -0.964120 -0.101432 -0.177536 0.000000 0.000000 0.000000 -0.370453 13.943945 8.658255 -69.498749 -7.034928 8.905512 -169.798920 -89.958625 -179.627251 3.908722 -10.261624 0.184665 3.924678 -10.255744 0.000000 0.000000 0.000000 0.000000 0.000000 0.000000 0.000000 -4.686121 -10.692466 7.687289 67.712169 5.526355 18.499587 20.106122 73.125824 0.428398 -0.507471 13.049264 0.211499 -0.526748 13.053326 0.000000 0.000000 0.000000 0.000000 0.000000 0.000000 0.000000 
0.108505 18.040643 0.825238 0.138849 -12.863062 2.849773 -1.673487 22.155031 4.679268 -20.838806 -3.541463 -11.771163 -6.853355 -4.327106 -16.171342 0.637126 10.521517 22.533197 0.000000 0.000000 0.000000 -1.566063 -35.453398 -3.635042 45.615032 21.101504 -7.851770 -20.505137 5.656756 43.950666 -2.752880 16.165965 -24.000095 0.000000 0.000000 0.000000 2.525073 4.123355 3.775304 -3.980931 3.396798 19.795020 -0.123402 3.412651 -13.595089 5.149195 -0.713590 -8.439717 -0.587952 -0.059974 -0.284941 0.000000 0.000000 0.000000 -0.385670 13.700429 8.575472 -69.161708 -7.072249 9.745832 9.097127 -89.518523 0.372854 3.922444 -10.542135 0.184453 3.941283 -10.535548 0.000000 0.000000 0.000000 0.000000 0.000000 0.000000 0.000000 -4.119114 -11.005618 7.346147 67.490223 5.441615 18.890707 19.242147 74.090090 0.434136 -0.625744 13.133550 0.214236 -0.646344 13.137407 0.000000 0.000000 0.000000 0.000000 0.000000 0.000000 0.000000 
0.154526 18.095137 1.005901 0.232984 -12.924477 2.966561 -2.033943 21.983598 4.648081 -20.778027 -3.508401 -11.735843 -6.576262 -3.948644 -15.230948 0.480021 9.915792 20.963011 0.000000 0.000000 0.000000 -2.290745 -35.011303 -2.932892 44.539402 21.001650 -8.350498 -19.126977 4.974213 43.723574 -2.824597 16.406438 -24.558848 0.000000 0.000000 0.000000 3.762086 4.311121 3.067253 -5.472329 3.609785 20.818252 0.060611 3.285355 -13.855699 4.624757 -0.618111 -7.822777 -0.263209 -0.029218 -0.273250 0.000000 0.000000 0.000000 -0.262173 13.517179 8.444641 -68.721722 -7.085318 11.152511 7.134393 -88.705466 0.370905 3.925288 -11.011985 0.182993 3.949418 -11.004254 0.000000 0.000000 0.000000 0.000000 0.000000 0.000000 0.000000 -3.590171 -11.370080 7.028325 67.200976 5.322933 19.352300 18.409000 75.070472 0.441406 -0.733959 13.213570 0.217745 -0.755680 13.217243 0.000000 0.000000 0.000000 0.000000 0.000000 0.000000 0.000000 
0.199247 18.147957 1.183119 0.267930 -13.031852 3.066352 -2.461049 21.736499 4.674335 -20.566693 -3.409486 -11.652120 -6.261744 -3.664435 -14.619700 0.364141 9.456665 19.665745 0.000000 0.000000 0.000000 -2.980454 -34.527107 -2.176259 43.358453 20.822893 -8.847551 -17.542439 4.244400 43.292562 -2.910253 16.720971 -25.205373 0.000000 0.000000 0.000000 4.982447 4.506182 2.209988 -6.847771 3.850037 22.186779 0.183295 3.165245 -14.268380 4.332076 -0.552594 -7.514909 -0.040183 -0.007911 -0.286489 0.000000 0.000000 0.000000 -0.251244 13.426843 8.343344 -68.454609 -7.222046 11.661191 6.510875 -88.455580 0.368407 3.948574 -11.183744 0.181540 3.974997 -11.175454 0.000000 0.000000 0.000000 0.000000 0.000000 0.000000 0.000000 -3.239370 -11.687197 6.789709 67.064711 5.269499 19.574857 18.046937 75.475726 0.447274 -0.784560 13.271550 0.220612 -0.806773 13.275161 0.000000 0.000000 0.000000 0.000000 0.000000 0.000000 0.000000 
0.244692 18.200274 1.358691 0.310358 -13.103694 3.179847 -2.941437 21.454201 4.691059 -20.306001 -3.317773 -11.600780 -5.968579 -3.374557 -14.005874 0.263596 9.029230 18.430892 0.000000 0.000000 0.000000 -3.600624 -33.987167 -1.420753 42.064759 20.657048 -9.414076 -15.879797 3.493798 42.816800 -2.954543 16.988332 -25.811387 0.000000 0.000000 0.000000 6.191875 4.711642 1.372243 -8.204889 4.101203 23.471654 0.310869 3.033820 -14.635715 4.047225 -0.486658 -7.198592 0.183056 0.012581 -0.289741 0.000000 0.000000 0.000000 -0.228187 13.323313 8.254768 -68.200875 -7.361314 12.151105 5.904854 -88.213862 0.365827 3.971260 -11.352368 0.180042 3.999996 -11.343527 0.000000 0.000000 0.000000 0.000000 0.000000 0.000000 0.000000 -2.906193 -12.001123 6.560102 66.937806 5.213080 19.787749 17.691633 75.868155 0.452886 -0.835406 13.327988 0.223351 -0.858130 13.331529 0.000000 0.000000 0.000000 0.000000 0.000000 0.000000 0.000000 
0.278242 18.243109 1.520269 0.254933 -13.116073 3.304676 -3.338243 21.047089 4.679216 -19.986357 -3.136157 -11.380399 -5.657732 -3.230610 -13.784018 0.210983 8.725170 17.483097 0.000000 0.000000 0.000000 -3.982016 -33.332479 -0.882986 40.777365 20.373215 -9.846677 -14.261266 2.726092 42.314544 -2.939045 17.159412 -26.486852 0.000000 0.000000 0.000000 6.986477 4.817819 0.805099 -8.987509 4.243508 24.277484 0.348373 2.939357 -14.864429 3.932166 -0.453183 -7.048853 0.311128 0.023625 -0.283626 0.000000 0.000000 0.000000 -0.249638 13.261090 8.226941 -68.106801 -7.482797 12.139495 6.028155 -88.263411 0.364562 3.993724 -11.342326 0.179406 4.022587 -11.333363 0.000000 0.000000 0.000000 0.000000 0.000000 0.000000 0.000000 -2.769458 -12.178226 6.433940 66.955455 5.179639 19.873530 17.552043 76.052020 0.458584 -0.857076 13.406292 0.226138 -0.880148 13.409836 0.000000 0.000000 0.000000 0.000000 0.000000 0.000000 0.000000 
0.311157 18.284874 1.679598 0.207283 -13.099146 3.435803 -3.769119 20.619831 4.667236 -19.635863 -2.962226 -11.179611 -5.358895 -3.087118 -13.567940 0.165450 8.443809 16.582851 0.000000 0.000000 0.000000 -4.302917 -32.635076 -0.347229 39.402943 20.091135 -10.315457 -12.568375 1.944730 41.758358 -2.893572 17.288993 -27.128311 0.000000 0.000000 0.000000 7.758565 4.920746 0.245790 -9.747791 4.379381 25.041400 0.387054 2.837965 -15.072169 3.823473 -0.420646 -6.897651 0.436625 0.034124 -0.274291 0.000000 0.000000 0.000000 -0.268068 13.192460 8.205361 -68.020692 -7.602789 12.113908 6.168857 -88.319695 0.363281 4.016037 -11.327651 0.178765 4.044977 -11.318576 0.000000 0.000000 0.000000 0.000000 0.000000 0.000000 0.000000 -2.642007 -12.352620 6.313201 66.978318 5.144040 19.954258 17.416597 76.230479 0.464247 -0.878533 13.484869 0.228906 -0.901961 13.488416 0.000000 0.000000 0.000000 0.000000 0.000000 0.000000 0.000000 
0.342974 18.325120 1.836158 0.201062 -13.127154 3.574229 -4.282629 20.183157 4.681614 -19.243140 -2.778153 -11.004111 -5.055148 -2.961104 -13.451868 0.131912 8.222854 15.774407 0.000000 0.000000 0.000000 -4.470457 -31.956041 0.214401 37.990162 19.988094 -10.922838 -11.077986 1.263574 41.389600 -2.829720 17.357513 -27.622244 0.000000 0.000000 0.000000 8.490596 5.019540 -0.368095 -10.510881 4.514722 25.820046 0.355555 2.735611 -15.176068 3.786109 -0.385475 -6.816193 0.574650 0.050293 -0.354466 0.000000 0.000000 0.000000 -0.184455 13.123604 8.159364 -67.903893 -7.713232 12.289575 5.959859 -88.219381 0.362645 4.027479 -11.391786 0.178373 4.057241 -11.382498 0.000000 0.000000 0.000000 0.000000 0.000000 0.000000 0.000000 -2.757591 -12.497666 6.220412 67.322674 5.292532 19.787033 18.018951 75.784138 0.479807 -0.803590 13.717287 0.236605 -0.826673 13.721217 0.000000 0.000000 0.000000 0.000000 0.000000 0.000000 0.000000 
